<?xml version="1.0" encoding="utf-8"?>
<!-- Generator: Adobe Illustrator 26.0.3, SVG Export Plug-In . SVG Version: 6.00 Build 0)  -->
<svg version="1.1" id="Layer_1" xmlns="http://www.w3.org/2000/svg" xmlns:xlink="http://www.w3.org/1999/xlink" x="0px" y="0px"
	 viewBox="0 0 5957.23 1166.4" style="enable-background:new 0 0 5957.23 1166.4;" xml:space="preserve">
<style type="text/css">
	.st0{fill:#010101;}
	.st1{fill:#1F9DD9;}
</style>
<g>
	<g>
		<g>
			<g>
				<path class="st0" d="M1589.72,398.28v72.99h-229.71c-10.74,0-19.79,3.57-27.14,10.66c-7.35,7.11-11.02,15.85-11.02,26.24
					c0,10.39,3.67,19.26,11.02,26.65c7.34,7.37,16.39,11.07,27.14,11.07h152.58c15.81,0,30.64,2.86,44.5,8.61
					c13.83,5.76,25.99,13.53,36.45,23.38c10.45,9.83,18.64,21.45,24.57,34.85c5.93,13.38,8.89,27.74,8.89,43.05
					c0,15.31-2.96,29.66-8.89,43.05c-5.93,13.4-14.13,25.16-24.57,35.26c-10.46,10.12-22.63,18.02-36.45,23.79
					c-13.86,5.73-28.7,8.6-44.5,8.6h-228.87v-73h228.87c11.29,0,20.62-3.53,27.96-10.65c7.34-7.09,11.01-16.11,11.01-27.05
					c0-10.39-3.67-19.13-11.01-26.25c-7.34-7.1-16.67-10.65-27.96-10.65h-152.58c-15.84,0-30.67-2.87-44.52-8.62
					c-13.85-5.73-25.86-13.66-36.01-23.77c-10.18-10.12-18.23-21.87-24.17-35.27c-5.93-13.4-8.9-27.74-8.9-43.05
					c0-15.31,2.97-29.66,8.9-43.05c5.93-13.38,13.98-25.01,24.17-34.85c10.16-9.85,22.16-17.63,36.01-23.38
					c13.85-5.73,28.68-8.61,44.52-8.61L1589.72,398.28L1589.72,398.28z"/>
				<path class="st0" d="M2032.2,398.28v183.7c0,25.15-4.96,48.93-14.85,71.35c-9.89,22.42-23.6,42.11-41.1,59.03
					c-17.53,16.97-37.72,30.22-60.62,39.77c-22.89,9.58-47.6,14.36-74.16,14.36c-26.02,0-50.6-4.78-73.76-14.36
					c-23.18-9.55-43.36-22.8-60.6-39.77c-17.25-16.92-30.82-36.6-40.68-59.03c-9.9-22.41-14.83-46.2-14.83-71.35v-183.7h75.43v183.7
					c0,15.31,2.97,29.81,8.91,43.47c5.93,13.66,14.12,25.55,24.57,35.66c10.45,10.12,22.6,18.03,36.46,23.79
					c13.84,5.72,28.67,8.59,44.5,8.59c15.81,0,30.79-2.87,44.92-8.59c14.12-5.77,26.42-13.68,36.88-23.79
					c10.46-10.1,18.66-22,24.59-35.66c5.93-13.66,8.89-28.16,8.89-43.47v-183.7L2032.2,398.28L2032.2,398.28z"/>
				<path class="st0" d="M2244.97,399.91c26.55,0,51.27,4.81,74.17,14.35c22.9,9.59,43.08,22.69,60.61,39.36
					c17.51,16.7,31.22,36.1,41.1,58.23c9.89,22.15,14.85,46.08,14.85,71.76c0,25.16-4.96,48.95-14.85,71.35
					c-9.88,22.42-23.59,42.1-41.1,59.05c-17.53,16.94-37.72,30.21-60.61,39.76c-22.9,9.58-47.61,14.35-74.17,14.35h-114.44v147.62
					h-75.45V583.61c0-25.68,4.94-49.61,14.84-71.76c9.88-22.13,23.45-41.53,40.69-58.23c17.23-16.67,37.42-29.77,60.6-39.36
					C2194.38,404.72,2218.95,399.91,2244.97,399.91z M2289.88,686.54c14.12-5.75,26.42-13.66,36.88-23.78
					c10.46-10.12,18.66-22,24.57-35.69c5.93-13.66,8.9-28.14,8.9-43.45c0-15.29-2.96-29.64-8.9-43.04
					c-5.92-13.4-14.12-25.17-24.57-35.27c-10.46-10.11-22.77-18.05-36.88-23.79c-14.13-5.73-29.11-8.61-44.92-8.61
					c-15.84,0-30.67,2.88-44.51,8.61c-13.86,5.75-26,13.69-36.44,23.79c-10.46,10.1-18.65,21.87-24.58,35.27
					c-5.93,13.4-8.9,27.75-8.9,43.04v111.53h114.44C2260.77,695.15,2275.76,692.29,2289.88,686.54z"/>
				<path class="st0" d="M2650.99,399.91c26.55,0,51.27,4.81,74.17,14.35c22.89,9.59,43.09,22.69,60.6,39.36
					c17.52,16.7,31.22,36.1,41.11,58.23c9.89,22.15,14.84,46.08,14.84,71.76c0,25.16-4.94,48.95-14.84,71.35
					c-9.89,22.42-23.59,42.1-41.11,59.05c-17.51,16.94-37.72,30.21-60.6,39.76c-22.9,9.58-47.61,14.35-74.17,14.35h-114.44v147.62
					h-75.45V583.61c0-25.68,4.94-49.61,14.84-71.76c9.88-22.13,23.45-41.53,40.69-58.23c17.23-16.67,37.42-29.77,60.6-39.36
					C2600.4,404.72,2624.97,399.91,2650.99,399.91z M2695.91,686.54c14.12-5.75,26.42-13.66,36.88-23.78
					c10.45-10.12,18.64-22,24.57-35.69c5.93-13.66,8.91-28.14,8.91-43.45c0-15.29-2.98-29.64-8.91-43.04
					c-5.93-13.4-14.13-25.17-24.57-35.27c-10.46-10.11-22.77-18.05-36.88-23.79c-14.13-5.73-29.11-8.61-44.92-8.61
					c-15.84,0-30.67,2.88-44.51,8.61c-13.86,5.75-26,13.69-36.44,23.79c-10.46,10.1-18.66,21.87-24.58,35.27
					c-5.93,13.4-8.9,27.75-8.9,43.04v111.53h114.44C2666.8,695.15,2681.77,692.29,2695.91,686.54z"/>
				<path class="st0" d="M2866.28,583.61c0-25.68,4.94-49.61,14.83-71.76c9.89-22.13,23.45-41.53,40.69-58.23
					c17.24-16.67,37.44-29.77,60.61-39.36c23.17-9.54,47.75-14.35,73.74-14.35c26.57,0,51.3,4.81,74.18,14.35
					c22.89,9.59,43.09,22.69,60.61,39.36c17.51,16.7,31.21,36.1,41.12,58.23c9.87,22.15,14.83,46.08,14.83,71.76
					c0,25.16-4.96,48.95-14.83,71.35c-9.9,22.42-23.61,42.1-41.12,59.05c-17.52,16.94-37.72,30.21-60.61,39.76
					c-22.87,9.58-47.61,14.35-74.18,14.35c-25.99,0-50.57-4.77-73.74-14.35c-23.18-9.55-43.37-22.82-60.61-39.76
					c-17.25-16.95-30.8-36.63-40.69-59.05C2871.22,632.56,2866.28,608.77,2866.28,583.61z M2940.88,583.61
					c0,15.31,2.96,29.79,8.89,43.45c5.93,13.7,14.12,25.58,24.57,35.69c10.46,10.12,22.75,18.03,36.89,23.78
					c14.11,5.75,29.08,8.61,44.9,8.61c15.82,0,30.82-2.86,44.94-8.61c14.11-5.75,26.41-13.66,36.87-23.78
					c10.45-10.12,18.65-22,24.58-35.69c5.93-13.66,8.89-28.14,8.89-43.45c0-15.29-2.96-29.64-8.89-43.04
					c-5.93-13.4-14.13-25.17-24.58-35.27c-10.45-10.11-22.76-18.05-36.87-23.79c-14.13-5.73-29.12-8.61-44.94-8.61
					c-15.82,0-30.8,2.88-44.9,8.61c-14.14,5.75-26.43,13.69-36.89,23.79c-10.45,10.1-18.64,21.87-24.57,35.27
					C2943.84,553.97,2940.88,568.32,2940.88,583.61z"/>
				<path class="st0" d="M3501.18,398.28v72.99h-38.15c-15.83,0-30.66,2.88-44.5,8.61c-13.86,5.75-25.99,13.66-36.45,23.79
					c-10.45,10.11-18.65,21.87-24.58,35.26c-5.93,13.4-8.89,27.75-8.89,43.05v184.51h-76.3V581.98c0-25.7,4.94-49.62,14.83-71.76
					c9.89-22.14,23.59-41.55,41.12-58.23c17.5-16.66,37.85-29.8,61.02-39.36c23.17-9.58,47.75-14.35,73.75-14.35L3501.18,398.28
					L3501.18,398.28z"/>
				<path class="st0" d="M3751.22,693.49v73h-37.29c-26.02,0-50.59-4.78-73.75-14.36c-23.18-9.55-43.52-22.8-61.03-39.77
					c-17.52-16.92-31.22-36.6-41.11-59.03c-9.89-22.41-14.83-46.2-14.83-71.35V250.65h75.44V472.1h152.58v72.98h-152.58v36.91
					c0,15.31,2.97,29.81,8.89,43.47c5.93,13.66,14.13,25.55,24.59,35.66c10.45,10.12,22.73,18.03,36.87,23.79
					c14.12,5.72,29.09,8.59,44.93,8.59L3751.22,693.49L3751.22,693.49z"/>
				<path class="st1" d="M4120.8,398.28v72.99h-229.72c-10.73,0-19.77,3.57-27.12,10.66c-7.36,7.11-11.02,15.85-11.02,26.24
					c0,10.39,3.66,19.26,11.02,26.65c7.34,7.37,16.38,11.07,27.12,11.07h152.58c15.82,0,30.65,2.86,44.52,8.61
					c13.83,5.76,25.97,13.53,36.44,23.38c10.45,9.83,18.65,21.45,24.58,34.85c5.93,13.38,8.89,27.74,8.89,43.05
					c0,15.31-2.96,29.66-8.89,43.05s-14.13,25.16-24.58,35.26c-10.47,10.12-22.62,18.02-36.44,23.79c-13.86,5.73-28.7,8.6-44.52,8.6
					H3814.8v-73h228.86c11.31,0,20.64-3.53,27.98-10.65c7.32-7.09,11.01-16.11,11.01-27.05c0-10.39-3.69-19.13-11.01-26.25
					c-7.34-7.1-16.67-10.65-27.98-10.65h-152.58c-15.82,0-30.65-2.87-44.5-8.62c-13.85-5.73-25.86-13.66-36.02-23.77
					c-10.17-10.12-18.22-21.87-24.17-35.27c-5.93-13.4-8.89-27.74-8.89-43.05c0-15.31,2.97-29.66,8.89-43.05
					c5.94-13.38,13.99-25.01,24.17-34.85c10.16-9.85,22.18-17.63,36.02-23.38c13.85-5.73,28.68-8.61,44.5-8.61L4120.8,398.28
					L4120.8,398.28z"/>
				<path class="st1" d="M4371.71,398.28c26.57,0,51.29,4.77,74.17,14.35c22.89,9.55,42.94,22.7,60.18,39.36
					c17.25,16.68,30.8,36.08,40.69,58.23c9.88,22.14,14.84,46.06,14.84,71.76V766.5h-189.88c-25.99,0-50.58-4.78-73.75-14.36
					c-23.18-9.55-43.52-22.8-61.03-39.77c-17.52-16.92-31.23-36.6-41.1-59.03c-9.9-22.41-14.85-46.2-14.85-71.35
					c0-25.7,4.94-49.62,14.85-71.76c9.87-22.14,23.58-41.55,41.1-58.23c17.51-16.66,37.85-29.8,61.03-39.36
					C4321.13,403.06,4345.72,398.28,4371.71,398.28z M4486.14,693.49V581.98c0-15.31-2.97-29.66-8.9-43.05
					c-5.93-13.38-14.12-25.15-24.57-35.26c-10.46-10.13-22.61-18.04-36.45-23.79c-13.85-5.73-28.68-8.61-44.5-8.61
					c-15.83,0-30.8,2.88-44.92,8.61c-14.14,5.75-26.44,13.66-36.89,23.79c-10.45,10.11-18.65,21.87-24.57,35.26
					c-5.93,13.4-8.9,27.75-8.9,43.05s2.97,29.81,8.9,43.47c5.93,13.66,14.12,25.55,24.57,35.66c10.45,10.12,22.75,18.03,36.89,23.79
					c14.11,5.72,29.08,8.59,44.92,8.59L4486.14,693.49L4486.14,693.49z"/>
				<path class="st1" d="M4773.5,398.28c26.57,0,51.29,4.77,74.17,14.35c22.89,9.55,42.95,22.7,60.19,39.36
					c17.23,16.68,30.79,36.08,40.68,58.23c9.88,22.14,14.83,46.06,14.83,71.76V729.6c0,25.7-4.95,49.61-14.83,71.74
					c-9.89,22.15-23.46,41.69-40.68,58.63c-17.25,16.95-37.31,30.22-60.19,39.79c-22.88,9.56-47.6,14.35-74.17,14.35h-38.14v-72.99
					h38.14c25.44,0,47.9-6.96,67.39-20.92c19.49-13.94,33.19-31.85,41.11-53.72h-108.5c-25.99,0-50.57-4.78-73.74-14.36
					c-23.18-9.55-43.53-22.8-61.04-39.77c-17.52-16.92-31.21-36.6-41.1-59.03c-9.89-22.41-14.84-46.2-14.84-71.35
					c0-25.7,4.94-49.62,14.84-71.76c9.89-22.14,23.58-41.55,41.1-58.23c17.52-16.66,37.87-29.8,61.04-39.36
					C4722.93,403.06,4747.5,398.28,4773.5,398.28z M4658.22,581.98c0,15.31,2.97,29.81,8.89,43.47
					c5.93,13.66,14.13,25.55,24.58,35.66c10.45,10.12,22.74,18.03,36.88,23.79c14.12,5.72,29.09,8.59,44.92,8.59h115.28V581.98
					c0-15.31-2.97-29.66-8.89-43.05c-5.93-13.38-14.14-25.15-24.59-35.26c-10.45-10.13-22.74-18.04-36.87-23.79
					c-14.13-5.73-29.1-8.61-44.93-8.61c-15.82,0-30.8,2.88-44.92,8.61c-14.14,5.75-26.43,13.66-36.88,23.79
					c-10.45,10.11-18.65,21.87-24.58,35.26C4661.19,552.32,4658.22,566.67,4658.22,581.98z"/>
				<path class="st1" d="M5285.48,636.91l53.4,51.67l-26.27,25.44c-18.1,17.49-38.72,30.87-61.89,40.16
					c-23.18,9.33-47.45,13.96-72.88,13.96c-25.43,0-49.74-4.63-72.91-13.96c-23.18-9.29-43.79-22.67-61.87-40.16
					c-18.65-18.05-32.5-38.41-41.54-61.11c-9.04-22.68-13.56-45.78-13.56-69.3c0-23.5,4.52-46.47,13.56-68.9
					c9.04-22.39,22.9-42.61,41.54-60.67c18.65-18.04,39.7-31.57,63.16-40.57c23.43-9.04,47.3-13.55,71.62-13.55
					c24.3,0,48.17,4.51,71.63,13.55c23.44,9,44.52,22.54,63.15,40.57l26.27,25.43l-211.06,204.19
					c21.45,10.39,44.2,13.81,68.23,10.25c24.02-3.56,45.05-14.08,63.15-31.58L5285.48,636.91z M5096.45,504.88
					c-22.62,21.87-33.9,48.13-33.9,78.73c0,16.94,3.93,33.1,11.86,48.37c6.78-6.53,17.09-16.52,30.93-29.91
					c13.85-13.38,28.52-27.6,44.09-42.65c15.53-15.04,30.51-29.38,44.92-43.05c14.41-13.68,25.55-24.32,33.48-31.98
					c-21.5-10.39-44.25-13.94-68.24-10.67C5135.58,477.02,5114.52,487.41,5096.45,504.88z"/>
				<path class="st1" d="M5706.77,398.28v72.99h-229.72c-10.74,0-19.79,3.57-27.12,10.66c-7.35,7.11-11.02,15.85-11.02,26.24
					c0,10.39,3.67,19.26,11.02,26.65c7.33,7.37,16.38,11.07,27.12,11.07h152.58c15.81,0,30.64,2.86,44.51,8.61
					c13.84,5.76,25.98,13.53,36.44,23.38c10.45,9.83,18.65,21.45,24.58,34.85c5.93,13.38,8.89,27.74,8.89,43.05
					c0,15.31-2.96,29.66-8.89,43.05c-5.93,13.4-14.14,25.16-24.58,35.26c-10.46,10.12-22.61,18.02-36.44,23.79
					c-13.86,5.73-28.71,8.6-44.51,8.6h-228.88v-73h228.88c11.3,0,20.62-3.53,27.98-10.65c7.33-7.09,11.01-16.11,11.01-27.05
					c0-10.39-3.68-19.13-11.01-26.25c-7.35-7.1-16.67-10.65-27.98-10.65h-152.58c-15.83,0-30.66-2.87-44.5-8.62
					c-13.86-5.73-25.86-13.66-36.02-23.77c-10.18-10.12-18.23-21.87-24.18-35.27c-5.93-13.4-8.89-27.74-8.89-43.05
					c0-15.31,2.96-29.66,8.89-43.05c5.94-13.38,13.99-25.01,24.18-34.85c10.16-9.85,22.15-17.63,36.02-23.38
					c13.84-5.73,28.67-8.61,44.5-8.61L5706.77,398.28L5706.77,398.28z"/>
			</g>
		</g>
	</g>
	<path class="st1" d="M689.98,106.39c-263.33,0-476.81,213.47-476.81,476.81s213.47,476.81,476.81,476.81
		c263.35,0,476.82-213.48,476.82-476.81S953.33,106.39,689.98,106.39z M688.28,252.65c50.21,0,90.93,41.61,90.93,92.97
		c0,51.34-40.72,92.94-90.93,92.94c-50.23,0-90.97-41.6-90.97-92.94C597.31,294.26,638.06,252.65,688.28,252.65z M407.48,774.25
		c-12.09-4.88-22.7-11.58-31.85-20.18c-9.13-8.61-16.28-18.56-21.47-29.93c-5.19-11.38-7.77-23.56-7.77-36.57
		c0-13,2.58-25.17,7.77-36.54c5.19-11.37,12.34-21.26,21.47-29.6c9.15-8.35,19.76-14.97,31.85-19.84
		c12.1-4.86,25.05-7.31,38.87-7.31h133.28c9.39,0,17.3-3.13,23.71-9.41c6.42-6.28,9.62-13.79,9.62-22.64
		c0-8.79-3.2-16.22-9.62-22.26c-6.41-6.02-14.32-9.05-23.71-9.05H378.96v-61.96h200.67c13.84,0,26.8,2.44,38.89,7.29
		c12.09,4.88,22.57,11.5,31.48,19.86c8.88,8.33,15.91,18.23,21.09,29.58c5.18,11.41,7.77,23.56,7.77,36.54
		c0,13.02-2.59,25.19-7.77,36.57c-5.19,11.37-12.22,21.38-21.09,29.93c-8.9,8.6-19.39,15.31-31.48,20.2
		c-12.09,4.86-25.05,7.32-38.89,7.32H446.35c-9.86,0-18.01,3.02-24.43,9.04c-6.41,6.03-9.62,13.45-9.62,22.27
		c0,9.27,3.21,16.95,9.62,22.97c6.43,6.04,14.57,9.05,24.43,9.05h199.92v61.97H446.35C432.54,781.57,419.59,779.13,407.48,774.25z
		 M890.69,821.7l-11.31,10.64l-41.28,38.79H570.56l-57.23-53.8l382.69-0.59L890.69,821.7z M1025.81,724.12
		c-5.19,11.39-12.35,21.34-21.48,29.91c-9.14,8.64-19.76,15.33-31.84,20.21c-12.1,4.88-25.07,7.32-38.88,7.32H733.7V719.6h199.92
		c9.87,0,18-3.04,24.43-9.05c6.41-6.02,9.63-13.7,9.63-22.97c0-8.83-3.22-16.25-9.63-22.27c-6.43-6.02-14.56-9.06-24.43-9.06H800.34
		c-13.84,0-26.8-2.44-38.89-7.32c-12.09-4.85-22.58-11.59-31.48-20.18c-8.88-8.58-15.91-18.57-21.09-29.93
		c-5.19-11.39-7.78-23.55-7.78-36.57c0-12.98,2.59-25.19,7.78-36.56c5.19-11.36,12.21-21.23,21.09-29.57
		c8.89-8.35,19.38-14.97,31.48-19.86c12.08-4.86,25.04-7.31,38.89-7.31h200.67v61.98H800.34c-9.38,0-17.3,3.03-23.71,9.04
		c-6.43,6.04-9.62,13.47-9.62,22.28c0,8.84,3.19,16.36,9.62,22.64c6.41,6.26,14.33,9.41,23.71,9.41h133.27
		c13.81,0,26.78,2.4,38.88,7.29c12.08,4.86,22.7,11.5,31.84,19.86c9.12,8.33,16.29,18.23,21.48,29.6
		c5.18,11.38,7.77,23.55,7.77,36.54C1033.58,700.58,1030.99,712.75,1025.81,724.12z"/>
</g>
</svg>
